Rainer Werner Fassbinder not only directed Ali: Fear Eats the Soul (Angst essen Seele auf), but also scripted the film, designed the sets, and produced. Brigitte Mira heads the cast as a lonely German cleaning woman, who enters into an affair with equally lonely--and much, much younger--Moroccan mechanic El Hedi Ben Salem. They marry, despite the shocked, bigoted reactions of those around them. This thinly disguised remake of Douglas Sirk's All That Heaven Allows (cult favorite Sirk was one of Fassbinder's personal heroes) won the international critic's prize at the Cannes Film Festival. 

   General
      Complete name :Angst essen Seele auf.avi
      Format : AVI
      Format/Info : Audio Video Interleave
      File size : 1.37 GiB
      Duration : 1h 33mn
      Overall bit rate : 2 097 Kbps
      Writing application : VirtualDubMod 1.5.4.1 (build 2178/release)
      Writing library : VirtualDubMod build 2178/release
   Video #0
      ID : 0
      Format : MPEG-4 Visual
      Format profile : AdvancedSimple@L5
      Format settings, BVOP : Yes
      Format settings, QPel : No
      Format settings, GMC : No warppoints
      Format settings, Matrix : Custom
      Codec ID : XVID
      Codec ID/Hint : XviD
      Duration : 1h 33mn
      Bit rate : 1 898 Kbps
      Width : 720 pixels
      Height : 544 pixels
      Display aspect ratio : 4:3
      Frame rate : 23.976 fps
      Resolution : 24 bits
      Colorimetry : 4:2:0
      Scan type : Progressive
      Bits/(Pixel*Frame) : 0.202
      Stream size : 1.24 GiB (91%)
      Writing library : XviD 1.2.1 (UTC 2008-12-04)
   Audio #1
      ID : 1
      Format : AC-3
      Format/Info : Audio Coding 3
      Codec ID : 2000
      Duration : 1h 33mn
      Bit rate mode : Constant
      Bit rate : 192 Kbps
      Channel(s) : 1 channel
      Channel positions : C
      Sampling rate : 48.0 KHz
      Stream size : 128 MiB (9%)
      Alignment : Split accross interleaves
      Interleave, duration : 96 ms (2.30 video frames)
      Interleave, preload duration : 96 ms
      Language : German
 
http://www.imdb.com/title/tt0071141/

German audio; English subpack (idx/sub)

Criterion rip, posted at KG by Godfrey, whom we thank

Fassbinder - Angst essen Seele auf (1974)